<?xml version="1.0" encoding="UTF-8" standalone="no"?>
<svg
   xmlns:dc="http://purl.org/dc/elements/1.1/"
   xmlns:cc="http://creativecommons.org/ns#"
   xmlns:rdf="http://www.w3.org/1999/02/22-rdf-syntax-ns#"
   xmlns:svg="http://www.w3.org/2000/svg"
   xmlns="http://www.w3.org/2000/svg"
   id="svg8"
   version="1.1"
   viewBox="0 0 60 60"
   height="60mm"
   width="60mm">
  <metadata
     id="metadata5">
    <rdf:RDF>
      <cc:Work
         rdf:about="">
        <dc:format>image/svg+xml</dc:format>
        <dc:type
           rdf:resource="http://purl.org/dc/dcmitype/StillImage" />
        <dc:title></dc:title>
      </cc:Work>
    </rdf:RDF>
  </metadata>
  <g
     transform="translate(0,-237)"
     style="display:inline"
     id="layer1">
    <path
       transform="matrix(0.26458333,0,0,0.26458333,0,237)"
       id="path15913"
       d="m -81.294922,178.77148 c -2.052419,3.4798 -3.962035,7.05378 -5.568359,10.79883 l -10.845703,-4.39843 a 1.8899528,1.8899528 0 0 0 -2.476566,2.42773 l 13.861331,36.21484 a 1.8899528,1.8899528 0 0 0 2.560547,1.03907 l 35.169922,-16.32618 a 1.8899528,1.8899528 0 0 0 -0.08398,-3.46679 l -9.871094,-4.00391 c 3.773383,-8.61258 9.466667,-16.11439 16.40625,-22.28516 h -5.503906 c -6.475209,6.42449 -11.802531,13.96973 -15.265625,22.5586 a 1.8899528,1.8899528 0 0 0 1.041015,2.45898 l 7.742188,3.14063 -29.388672,13.64258 -11.582031,-30.26172 8.488281,3.44336 a 1.8899528,1.8899528 0 0 0 2.46289,-1.04297 c 1.976071,-4.87493 4.367314,-9.53281 7.123047,-13.93946 z"
       style="color:#000000;font-style:normal;font-variant:normal;font-weight:normal;font-stretch:normal;font-size:medium;line-height:normal;font-family:sans-serif;font-variant-ligatures:normal;font-variant-position:normal;font-variant-caps:normal;font-variant-numeric:normal;font-variant-alternates:normal;font-feature-settings:normal;text-indent:0;text-align:start;text-decoration:none;text-decoration-line:none;text-decoration-style:solid;text-decoration-color:#000000;letter-spacing:normal;word-spacing:normal;text-transform:none;writing-mode:lr-tb;direction:ltr;text-orientation:mixed;dominant-baseline:auto;baseline-shift:baseline;text-anchor:start;white-space:normal;shape-padding:0;clip-rule:nonzero;display:inline;overflow:visible;visibility:visible;opacity:1;isolation:auto;mix-blend-mode:normal;color-interpolation:sRGB;color-interpolation-filters:linearRGB;solid-color:#000000;solid-opacity:1;vector-effect:none;fill:#91cfff;fill-opacity:1;fill-rule:nonzero;stroke:none;stroke-width:3.77952766;stroke-linecap:round;stroke-linejoin:round;stroke-miterlimit:4;stroke-dasharray:none;stroke-dashoffset:0;stroke-opacity:1;color-rendering:auto;image-rendering:auto;shape-rendering:auto;text-rendering:auto;enable-background:accumulate" />
    <path
       transform="matrix(0.26458333,0,0,0.26458333,0,237)"
       id="path817"
       d="m -81.294922,178.77148 h 4.269531 c 8.144821,-13.02424 19.515313,-23.82743 33.091797,-31.34375 l 10.527344,20.26172 c -5.295908,3.00792 -9.971507,6.84674 -14.240234,11.08203 h 5.503906 c 3.711443,-3.30026 7.673783,-6.33136 12.125,-8.69921 a 1.8899528,1.8899528 0 0 0 0.791016,-2.53907 l -12.267579,-23.60937 a 1.8899528,1.8899528 0 0 0 -1.693359,-1.01758 1.8899528,1.8899528 0 0 0 -0.865234,0.2168 c -15.590568,8.20847 -28.383617,20.62908 -37.242188,35.64843 z"
       style="color:#000000;font-style:normal;font-variant:normal;font-weight:normal;font-stretch:normal;font-size:medium;line-height:normal;font-family:sans-serif;font-variant-ligatures:normal;font-variant-position:normal;font-variant-caps:normal;font-variant-numeric:normal;font-variant-alternates:normal;font-feature-settings:normal;text-indent:0;text-align:start;text-decoration:none;text-decoration-line:none;text-decoration-style:solid;text-decoration-color:#000000;letter-spacing:normal;word-spacing:normal;text-transform:none;writing-mode:lr-tb;direction:ltr;text-orientation:mixed;dominant-baseline:auto;baseline-shift:baseline;text-anchor:start;white-space:normal;shape-padding:0;clip-rule:nonzero;display:inline;overflow:visible;visibility:visible;opacity:1;isolation:auto;mix-blend-mode:normal;color-interpolation:sRGB;color-interpolation-filters:linearRGB;solid-color:#000000;solid-opacity:1;vector-effect:none;fill:#91cfff;fill-opacity:1;fill-rule:nonzero;stroke:none;stroke-width:3.77952766;stroke-linecap:round;stroke-linejoin:round;stroke-miterlimit:4;stroke-dasharray:none;stroke-dashoffset:0;stroke-opacity:1;color-rendering:auto;image-rendering:auto;shape-rendering:auto;text-rendering:auto;enable-background:accumulate" />
  </g>
</svg>
