<?xml version="1.0" encoding="UTF-8" standalone="no"?>
<svg
   xmlns:dc="http://purl.org/dc/elements/1.1/"
   xmlns:cc="http://creativecommons.org/ns#"
   xmlns:rdf="http://www.w3.org/1999/02/22-rdf-syntax-ns#"
   xmlns:svg="http://www.w3.org/2000/svg"
   xmlns="http://www.w3.org/2000/svg"
   id="svg8"
   version="1.1"
   viewBox="0 0 60 60"
   height="60mm"
   width="60mm">
  <metadata
     id="metadata5">
    <rdf:RDF>
      <cc:Work
         rdf:about="">
        <dc:format>image/svg+xml</dc:format>
        <dc:type
           rdf:resource="http://purl.org/dc/dcmitype/StillImage" />
        <dc:title></dc:title>
      </cc:Work>
    </rdf:RDF>
  </metadata>
  <g
     transform="translate(0,-237)"
     style="display:inline"
     id="layer1">
    <path
       id="path15913-6"
       d="m -11.655619,274.86797 c -5.045762,2.63197 -9.056193,7.08792 -11.326957,12.28917 -1.008997,-0.39343 -1.999918,-0.84305 -3.020572,-1.20025 -0.787346,0.0289 -0.474801,0.87904 -0.25758,1.32338 1.14026,2.9791 2.280519,5.9582 3.420779,8.9373 0.341324,0.64598 0.999031,0.0832 1.459951,-0.0883 2.840968,-1.3188 5.681935,-2.63759 8.522902,-3.9564 0.720959,-0.46784 -0.07184,-1.056 -0.608455,-1.15505 -0.675164,-0.27386 -1.350328,-0.54772 -2.025492,-0.82157 1.539972,-3.5385 4.384127,-6.41233 7.7015114,-8.32297 0.292185,-0.51814 -0.247532,-0.98955 -0.420638,-1.46538 -0.92283,-1.77601 -1.8456584,-3.55203 -2.7684874,-5.32804 -0.153826,-0.20715 -0.432571,-0.29827 -0.676962,-0.21188 z"
       style="color:#000000;font-style:normal;font-variant:normal;font-weight:normal;font-stretch:normal;font-size:medium;line-height:normal;font-family:sans-serif;font-variant-ligatures:normal;font-variant-position:normal;font-variant-caps:normal;font-variant-numeric:normal;font-variant-alternates:normal;font-feature-settings:normal;text-indent:0;text-align:start;text-decoration:none;text-decoration-line:none;text-decoration-style:solid;text-decoration-color:#000000;letter-spacing:normal;word-spacing:normal;text-transform:none;writing-mode:lr-tb;direction:ltr;text-orientation:mixed;dominant-baseline:auto;baseline-shift:baseline;text-anchor:start;white-space:normal;shape-padding:0;clip-rule:nonzero;display:inline;overflow:visible;visibility:visible;opacity:1;isolation:auto;mix-blend-mode:normal;color-interpolation:sRGB;color-interpolation-filters:linearRGB;solid-color:#000000;solid-opacity:1;vector-effect:none;fill:#6e6e6e;fill-opacity:1;fill-rule:nonzero;stroke:none;stroke-width:1;stroke-linecap:round;stroke-linejoin:round;stroke-miterlimit:4;stroke-dasharray:none;stroke-dashoffset:0;stroke-opacity:1;color-rendering:auto;image-rendering:auto;shape-rendering:auto;text-rendering:auto;enable-background:accumulate" />
  </g>
</svg>
