<?xml version="1.0" encoding="UTF-8" standalone="no"?>
<svg
   xmlns:dc="http://purl.org/dc/elements/1.1/"
   xmlns:cc="http://creativecommons.org/ns#"
   xmlns:rdf="http://www.w3.org/1999/02/22-rdf-syntax-ns#"
   xmlns:svg="http://www.w3.org/2000/svg"
   xmlns="http://www.w3.org/2000/svg"
   id="svg8"
   version="1.1"
   viewBox="0 0 60 60"
   height="60mm"
   width="60mm">
  <defs
     id="defs2" />
  <metadata
     id="metadata5">
    <rdf:RDF>
      <cc:Work
         rdf:about="">
        <dc:format>image/svg+xml</dc:format>
        <dc:type
           rdf:resource="http://purl.org/dc/dcmitype/StillImage" />
        <dc:title></dc:title>
      </cc:Work>
    </rdf:RDF>
  </metadata>
  <g
     transform="translate(0,-237)"
     style="display:inline"
     id="layer1">
    <path
       style="display:inline;fill:#727272;fill-opacity:1;stroke-width:0.11216243"
       d="m -55.392578,217.23438 v 3.63281 3.63086 l -0.923828,0.13672 c -3.348858,0.49118 -6.864668,1.974 -9.673828,4.08203 -1.152424,0.86483 -3.301222,3.01164 -4.166016,4.16406 -2.108039,2.8091 -3.590749,6.32689 -4.082031,9.67578 l -0.136719,0.92383 h -3.630859 -3.632813 v 2.46875 2.4668 h 3.632813 3.630859 l 0.136719,0.92578 c 0.491278,3.34881 1.973988,6.86465 4.082031,9.67382 0.86479,1.15238 3.013592,3.29924 4.166016,4.16407 2.80916,2.10799 6.324966,3.59287 9.673828,4.08398 l 0.923828,0.13477 v 3.63281 3.63086 h 2.46875 2.466797 v -3.63086 -3.63281 l 0.925781,-0.13477 c 3.348862,-0.4913 6.864664,-1.97595 9.673828,-4.08398 1.152423,-0.8648 3.299264,-3.01169 4.164063,-4.16407 2.108035,-2.80924 3.592709,-6.32493 4.083984,-9.67382 l 0.134766,-0.92578 h 3.632812 3.630859 v -2.4668 -2.46875 h -3.630859 -3.632812 l -0.134766,-0.92383 c -0.491273,-3.34889 -1.975949,-6.86668 -4.083984,-9.67578 -0.864803,-1.15242 -3.011632,-3.29923 -4.164063,-4.16406 -2.80916,-2.10803 -6.324974,-3.59092 -9.673828,-4.08203 l -0.925781,-0.13672 v -3.63086 -3.63281 h -2.466797 z"
       transform="matrix(0.26458333,0,0,0.26458333,0,237)"
       id="path1454" />
  </g>
</svg>
