<?xml version="1.0" encoding="UTF-8" standalone="no"?>
<svg
   xmlns:dc="http://purl.org/dc/elements/1.1/"
   xmlns:cc="http://creativecommons.org/ns#"
   xmlns:rdf="http://www.w3.org/1999/02/22-rdf-syntax-ns#"
   xmlns:svg="http://www.w3.org/2000/svg"
   xmlns="http://www.w3.org/2000/svg"
   id="svg8"
   version="1.1"
   viewBox="0 0 60 60"
   height="60mm"
   width="60mm">
  <defs
     id="defs2" />
  <metadata
     id="metadata5">
    <rdf:RDF>
      <cc:Work
         rdf:about="">
        <dc:format>image/svg+xml</dc:format>
        <dc:type
           rdf:resource="http://purl.org/dc/dcmitype/StillImage" />
        <dc:title></dc:title>
      </cc:Work>
    </rdf:RDF>
  </metadata>
  <g
     transform="translate(0,-237)"
     style="display:inline"
     id="layer1">
    <path
       transform="matrix(0.26458333,0,0,0.26458333,0,237)"
       id="path1468"
       d="m -24.210938,245.77148 h -10.878906 c 0.04077,4.09107 -1.331927,8.08772 -4.011718,11.39258 -2.809834,3.46526 -6.727731,5.71583 -11.242188,6.45703 v -0.002 c -1.174072,0.19578 -4.114862,0.19024 -5.271484,-0.008 -5.842477,-0.99715 -10.645902,-4.53995 -13.291016,-9.80664 -1.289314,-2.56717 -1.847656,-4.94448 -1.847656,-7.85547 0,-0.0622 0.02481,-0.11581 0.02539,-0.17774 h -10.910156 v 0.17774 2.4668 h 3.632813 3.630859 l 0.136719,0.92578 c 0.491278,3.34881 1.973988,6.86467 4.082031,9.67382 0.86479,1.15238 3.013592,3.29924 4.166016,4.16407 2.80916,2.10799 6.324966,3.59287 9.673828,4.08398 l 0.923828,0.13477 v 3.63281 3.63086 h 2.46875 2.466797 v -3.63086 -3.63281 l 0.925781,-0.13477 c 3.348862,-0.4913 6.864664,-1.97595 9.673828,-4.08398 1.152423,-0.8648 3.299264,-3.01169 4.164063,-4.16407 2.108035,-2.80922 3.592709,-6.32493 4.083984,-9.67382 l 0.134766,-0.92578 h 3.632812 3.630859 v -2.4668 z"
       style="display:inline;fill:#91cfff;fill-opacity:1;stroke-width:0.11216243" />
    <path
       transform="matrix(0.26458333,0,0,0.26458333,0,237)"
       id="path1460"
       d="m -55.392578,217.23438 v 3.63281 3.63086 l -0.923828,0.13672 c -3.348858,0.49118 -6.864668,1.974 -9.673828,4.08203 -1.152424,0.86483 -3.301222,3.01164 -4.166016,4.16406 -2.108039,2.8091 -3.590749,6.32689 -4.082031,9.67578 l -0.136719,0.92383 h -3.630859 -3.632813 v 2.29101 h 10.910156 c 0.03233,-3.42526 0.934712,-6.515 2.814454,-9.44336 2.385427,-3.7162 6.340216,-6.58949 10.552734,-7.66601 1.513299,-0.38671 3.039417,-0.56988 4.548828,-0.56055 4.528234,0.028 8.903983,1.8015 12.318359,5.10352 2.27497,2.20014 4.086895,5.299 4.855469,8.30664 0.36182,1.41585 0.534705,2.84247 0.548828,4.25976 h 10.878906 v -2.29101 h -3.630859 -3.632812 l -0.134766,-0.92383 c -0.491273,-3.34889 -1.975949,-6.86668 -4.083984,-9.67578 -0.864803,-1.15242 -3.011632,-3.29923 -4.164063,-4.16406 -2.80916,-2.10803 -6.324974,-3.59092 -9.673828,-4.08203 l -0.925781,-0.13672 v -3.63086 -3.63281 h -2.466797 z"
       style="display:inline;fill:#91cfff;fill-opacity:1;stroke-width:0.11216243" />
    <path
       id="path1426"
       transform="matrix(0.26458333,0,0,0.26458333,0,237)"
       d="m -52.923828,236.38477 c -1.778865,0 -2.782928,0.21826 -4.207031,0.91796 -2.565873,1.26063 -4.364904,3.45389 -5.115235,6.23438 -0.343748,1.274 -0.343748,3.54834 0,4.82227 1.019105,3.77654 4.070141,6.52008 7.919922,7.11914 0.962589,0.14929 2.768805,0.0474 3.814453,-0.2168 3.339511,-0.84238 5.989384,-3.4903 6.910157,-6.90234 0.343748,-1.27393 0.343748,-3.54827 0,-4.82227 -0.750331,-2.78049 -2.549359,-4.97375 -5.115235,-6.23438 -1.424099,-0.70042 -2.428162,-0.91796 -4.207031,-0.91796 z"
       style="display:inline;fill:#91cfff;fill-opacity:1;stroke-width:0.11216243" />
  </g>
</svg>
