<?xml version="1.0" encoding="UTF-8" standalone="no"?>
<svg
   xmlns:dc="http://purl.org/dc/elements/1.1/"
   xmlns:cc="http://creativecommons.org/ns#"
   xmlns:rdf="http://www.w3.org/1999/02/22-rdf-syntax-ns#"
   xmlns:svg="http://www.w3.org/2000/svg"
   xmlns="http://www.w3.org/2000/svg"
   id="svg8"
   version="1.1"
   viewBox="0 0 60 60"
   height="60mm"
   width="60mm">
  <metadata
     id="metadata5">
    <rdf:RDF>
      <cc:Work
         rdf:about="">
        <dc:format>image/svg+xml</dc:format>
        <dc:type
           rdf:resource="http://purl.org/dc/dcmitype/StillImage" />
        <dc:title></dc:title>
      </cc:Work>
    </rdf:RDF>
  </metadata>
  <g
     transform="translate(0,-237)"
     style="display:inline"
     id="layer1">
    <path
       transform="matrix(0.26458333,0,0,0.26458333,0,237)"
       id="path15918"
       d="m 48.667969,185.27148 c 4.337683,5.11939 7.987143,10.83444 10.572265,17.12891 l -10.083984,3.81445 a 1.8899528,1.8899528 0 0 0 -0.167969,3.46289 l 34.775391,17.14844 a 1.8899528,1.8899528 0 0 0 2.583984,-0.97851 L 101.05859,189.9707 a 1.8899528,1.8899528 0 0 0 -2.416012,-2.48437 l -11.007812,4.16601 C 86.764339,189.47671 85.772003,187.36528 84.75,185.27148 h -4.181641 c 1.57934,3.06588 3.051402,6.19591 4.279297,9.45313 a 1.8899528,1.8899528 0 0 0 2.435547,1.10156 l 8.628906,-3.26562 -12.292968,29.98047 -29.058594,-14.33008 7.861328,-2.97461 a 1.8899528,1.8899528 0 0 0 1.099609,-2.4336 c -2.398718,-6.36847 -5.773426,-12.23953 -9.875,-17.53125 z"
       style="color:#000000;font-style:normal;font-variant:normal;font-weight:normal;font-stretch:normal;font-size:medium;line-height:normal;font-family:sans-serif;font-variant-ligatures:normal;font-variant-position:normal;font-variant-caps:normal;font-variant-numeric:normal;font-variant-alternates:normal;font-feature-settings:normal;text-indent:0;text-align:start;text-decoration:none;text-decoration-line:none;text-decoration-style:solid;text-decoration-color:#000000;letter-spacing:normal;word-spacing:normal;text-transform:none;writing-mode:lr-tb;direction:ltr;text-orientation:mixed;dominant-baseline:auto;baseline-shift:baseline;text-anchor:start;white-space:normal;shape-padding:0;clip-rule:nonzero;display:inline;overflow:visible;visibility:visible;opacity:1;isolation:auto;mix-blend-mode:normal;color-interpolation:sRGB;color-interpolation-filters:linearRGB;solid-color:#000000;solid-opacity:1;vector-effect:none;fill:#91cfff;fill-opacity:1;fill-rule:nonzero;stroke:none;stroke-width:3.77952766;stroke-linecap:round;stroke-linejoin:round;stroke-miterlimit:4;stroke-dasharray:none;stroke-dashoffset:0;stroke-opacity:1;color-rendering:auto;image-rendering:auto;shape-rendering:auto;text-rendering:auto;enable-background:accumulate" />
    <path
       transform="matrix(0.26458333,0,0,0.26458333,0,237)"
       id="path1030"
       d="m 48.667969,185.27148 h 4.978515 C 48.153856,178.18507 41.319341,172.16859 33.412109,167.68359 L 43.9375,147.42773 c 15.745918,8.74871 28.442437,21.94808 36.630859,37.84375 H 84.75 C 75.996704,167.33849 61.837989,152.51481 44.060547,143.12109 A 1.8899528,1.8899528 0 0 0 43.152344,142.90234 1.8899528,1.8899528 0 0 0 41.5,143.91992 l -12.267578,23.60742 a 1.8899528,1.8899528 0 0 0 0.791016,2.53907 c 7.217507,3.83386 13.448656,9.07284 18.644531,15.20507 z"
       style="color:#000000;font-style:normal;font-variant:normal;font-weight:normal;font-stretch:normal;font-size:medium;line-height:normal;font-family:sans-serif;font-variant-ligatures:normal;font-variant-position:normal;font-variant-caps:normal;font-variant-numeric:normal;font-variant-alternates:normal;font-feature-settings:normal;text-indent:0;text-align:start;text-decoration:none;text-decoration-line:none;text-decoration-style:solid;text-decoration-color:#000000;letter-spacing:normal;word-spacing:normal;text-transform:none;writing-mode:lr-tb;direction:ltr;text-orientation:mixed;dominant-baseline:auto;baseline-shift:baseline;text-anchor:start;white-space:normal;shape-padding:0;clip-rule:nonzero;display:inline;overflow:visible;visibility:visible;opacity:1;isolation:auto;mix-blend-mode:normal;color-interpolation:sRGB;color-interpolation-filters:linearRGB;solid-color:#000000;solid-opacity:1;vector-effect:none;fill:#91cfff;fill-opacity:1;fill-rule:nonzero;stroke:none;stroke-width:3.77952766;stroke-linecap:round;stroke-linejoin:round;stroke-miterlimit:4;stroke-dasharray:none;stroke-dashoffset:0;stroke-opacity:1;color-rendering:auto;image-rendering:auto;shape-rendering:auto;text-rendering:auto;enable-background:accumulate" />
  </g>
</svg>
