<?xml version="1.0" encoding="UTF-8" standalone="no"?>
<svg
   xmlns:dc="http://purl.org/dc/elements/1.1/"
   xmlns:cc="http://creativecommons.org/ns#"
   xmlns:rdf="http://www.w3.org/1999/02/22-rdf-syntax-ns#"
   xmlns:svg="http://www.w3.org/2000/svg"
   xmlns="http://www.w3.org/2000/svg"
   width="60mm"
   height="60mm"
   viewBox="0 0 60 60"
   version="1.1"
   id="svg8">
  <metadata
     id="metadata5">
    <rdf:RDF>
      <cc:Work
         rdf:about="">
        <dc:format>image/svg+xml</dc:format>
        <dc:type
           rdf:resource="http://purl.org/dc/dcmitype/StillImage" />
        <dc:title></dc:title>
      </cc:Work>
    </rdf:RDF>
  </metadata>
  <g
     id="layer1"
     style="display:inline"
     transform="translate(0,-237)">
    <path
       style="color:#000000;font-style:normal;font-variant:normal;font-weight:normal;font-stretch:normal;font-size:medium;line-height:normal;font-family:sans-serif;font-variant-ligatures:normal;font-variant-position:normal;font-variant-caps:normal;font-variant-numeric:normal;font-variant-alternates:normal;font-feature-settings:normal;text-indent:0;text-align:start;text-decoration:none;text-decoration-line:none;text-decoration-style:solid;text-decoration-color:#000000;letter-spacing:normal;word-spacing:normal;text-transform:none;writing-mode:lr-tb;direction:ltr;text-orientation:mixed;dominant-baseline:auto;baseline-shift:baseline;text-anchor:start;white-space:normal;shape-padding:0;clip-rule:nonzero;display:inline;overflow:visible;visibility:visible;opacity:1;isolation:auto;mix-blend-mode:normal;color-interpolation:sRGB;color-interpolation-filters:linearRGB;solid-color:#000000;solid-opacity:1;vector-effect:none;fill:#6e6e6e;fill-opacity:1;fill-rule:nonzero;stroke:none;stroke-width:1;stroke-linecap:round;stroke-linejoin:round;stroke-miterlimit:4;stroke-dasharray:none;stroke-dashoffset:0;stroke-opacity:1;color-rendering:auto;image-rendering:auto;shape-rendering:auto;text-rendering:auto;enable-background:accumulate"
       d="m 10.980208,275.07881 -3.2457966,6.24613 c -0.126241,0.24344 -0.03288,0.54313 0.20929,0.6718 0.02217,0.0118 0.04431,0.0236 0.0664,0.0355 1.881473,1.01111 3.5078476,2.38388 4.8666286,3.98753 1.147681,1.3545 2.113264,2.86661 2.797247,4.53202 l -2.668056,1.00924 c -0.409072,0.15459 -0.436631,0.72277 -0.04444,0.91622 l 9.200989,4.5372 c 0.259863,0.12802 0.573801,0.009 0.68368,-0.2589 l 3.892267,-9.49245 c 0.165489,-0.40426 -0.230515,-0.81147 -0.639236,-0.65732 l -2.912483,1.10226 c -0.230301,-0.57564 -0.492855,-1.13429 -0.763262,-1.68827 -2.315975,-4.74477 -6.062136,-8.66687 -10.76575,-11.15229 -0.287385,-0.14049 -0.508802,0.049 -0.677479,0.21135 z"
       id="path15918-3" />
  </g>
</svg>
